# xmcd
#
# Track frame offsets:
#	150
#	16018
#	33034
#	52327
#	73579
#	87594
#	100764
#	116542
#	136416
#	156880
#	175229
#	198449
#
# Disc length: 2849 seconds
#
# Revision: 0
# Processed by: cddbd v1.5.2PL0 Copyright (c) Steve Scherf et al.
# Submitted via: dBpowerAMP V4.0
#
DISCID=9d0b1f0c
DTITLE=Fanatics - Romancing The Blues
DYEAR=2007
DGENRE=Country Rock
TTITLE0=Romancing The Blues
TTITLE1=A Place Called Home
TTITLE2=The Sun Is Going To Shine Again
TTITLE3=Think I'm Going To Make It
TTITLE4=Where Are Your Thoughts Tonight
TTITLE5=Life Is For Living
TTITLE6=You Gotta Get Around
TTITLE7=Love Is Blind
TTITLE8=10/05/05
TTITLE9=Say What? There's Still Something Going On
TTITLE10=That's What It Took
TTITLE11=Good Time Boogie
EXTD=
EXTT0=
EXTT1=
EXTT2=
EXTT3=
EXTT4=
EXTT5=
EXTT6=
EXTT7=
EXTT8=
EXTT9=
EXTT10=
EXTT11=
PLAYORDER=
